<?xml version="1.0" encoding="UTF-8"?>
<svg width="752pt" height="752pt" version="1.1" viewBox="0 0 752 752" xmlns="http://www.w3.org/2000/svg">
 <path d="m462.05 230.76h-172.09c-15.695 0.019532-30.742 6.2617-41.84 17.359-11.098 11.098-17.34 26.145-17.359 41.84v172.09c0.019532 15.695 6.2617 30.738 17.359 41.84 11.098 11.098 26.145 17.34 41.84 17.355h172.09c15.695-0.015626 30.738-6.2578 41.84-17.355 11.098-11.102 17.34-26.145 17.355-41.84v-172.09c-0.015626-15.695-6.2578-30.742-17.355-41.84-11.102-11.098-26.145-17.34-41.84-17.359zm-172.09 23.68h172.09c9.418 0.011719 18.445 3.7578 25.102 10.414 6.6602 6.6602 10.406 15.688 10.418 25.105v74.203h-54.211c-3.6875-21.336-17.266-39.668-36.609-49.406-19.34-9.7422-42.152-9.7422-61.492 0-19.34 9.7383-32.922 28.07-36.609 49.406h-54.207v-74.203c0.011719-9.418 3.7578-18.445 10.414-25.105 6.6602-6.6562 15.688-10.402 25.105-10.414zm130.92 121.56c0 11.902-4.7305 23.316-13.145 31.73-8.4141 8.4141-19.828 13.145-31.73 13.145-11.898 0-23.312-4.7305-31.727-13.145-8.418-8.4141-13.145-19.828-13.145-31.73 0-11.898 4.7266-23.312 13.145-31.727 8.4141-8.418 19.828-13.145 31.727-13.145 11.898 0.015625 23.305 4.7461 31.715 13.16 8.4141 8.4102 13.145 19.816 13.16 31.711zm41.172 121.56-172.09 0.003906c-9.418-0.011718-18.445-3.7578-25.105-10.418-6.6562-6.6562-10.402-15.684-10.414-25.102v-74.207h54.211c3.6836 21.34 17.266 39.668 36.605 49.41 19.344 9.7422 42.152 9.7422 61.496 0 19.34-9.7422 32.918-28.07 36.605-49.41h54.207v74.207h0.003906c-0.011718 9.418-3.7578 18.445-10.414 25.105-6.6602 6.6562-15.688 10.402-25.105 10.414zm-27.898-211.82c-0.003907-3.1406 1.2422-6.1562 3.4648-8.375 2.2188-2.2227 5.2344-3.4688 8.375-3.4648h15.609-0.003906c6.5391 0 11.84 5.3008 11.84 11.84 0 6.5391-5.3008 11.84-11.84 11.84h-15.609 0.003906c-3.1406 0-6.1562-1.2461-8.375-3.4688-2.2227-2.2188-3.4688-5.2305-3.4648-8.3711z"/>
</svg>
