<?xml version="1.0" encoding="UTF-8"?>
<svg width="752pt" height="752pt" version="1.1" viewBox="0 0 752 752" xmlns="http://www.w3.org/2000/svg">
 <defs>
  <clipPath id="a">
   <path d="m139.21 205h465.79v349h-465.79z"/>
  </clipPath>
 </defs>
 <g clip-path="url(#a)">
  <path d="m145.99 348.53 447.33-142.12c6.7188-2.1406 13.129 4.0156 11.27 10.812l-78.266 286.34c-1.3828 5.0547-6.8203 7.8242-11.723 5.9688l-158.04-59.773c-6.2148-2.3516-7.7539-10.449-2.8281-14.906l123.98-112.33c7.6211-6.8984-0.60547-19.082-9.8594-14.578l-207.54 100.94c-2.2734 1.1094-4.9023 1.1875-7.2422 0.23438l-107.75-43.875c-7.6992-3.1406-7.2656-14.191 0.66406-16.707zm248.66 24.211c3.8906-3.3789-0.42969-9.4727-4.9102-6.9219l-98.898 54.012c-8.918 5.0781-13.105 15.672-10.078 25.48l30.551 102.86c1.5508 5.2109 8.0938 6.8906 11.965 3.0742l60.977-57.719c2.4922-2.4609 1.6992-6.668-1.5234-8.0352l-63.27-31.535c-3.4766-1.7344-4.1602-6.3906-1.3398-9.0508l76.531-72.16z"/>
 </g>
</svg>
