<?xml version="1.0" standalone="no"?>
<!DOCTYPE svg PUBLIC "-//W3C//DTD SVG 20010904//EN"
 "http://www.w3.org/TR/2001/REC-SVG-20010904/DTD/svg10.dtd">
<svg version="1.0" xmlns="http://www.w3.org/2000/svg"
 width="666.000000pt" height="375.000000pt" viewBox="0 0 666.000000 375.000000"
 preserveAspectRatio="xMidYMid meet">

<g transform="translate(0.000000,375.000000) scale(0.100000,-0.100000)"
fill="#000000" stroke="none">
<path d="M1867 3313 l-98 -4 7 -49 7 -50 -160 0 c-157 0 -163 -1 -339 -46 -98
-25 -203 -52 -232 -59 -29 -7 -56 -16 -59 -19 -4 -4 -1 -68 5 -144 7 -75 12
-162 12 -192 0 -31 7 -82 15 -113 8 -32 15 -87 15 -122 0 -65 0 -65 29 -65 33
0 41 -14 41 -73 0 -23 3 -59 6 -79 6 -34 10 -38 35 -38 27 0 29 -3 30 -42 1
-24 4 -90 8 -148 l6 -105 38 -3 38 -3 -6 123 c-3 68 -8 140 -10 160 -3 20 0
40 5 43 6 4 33 4 59 0 59 -8 57 -5 67 -199 7 -129 8 -135 31 -145 14 -6 28 -9
31 -7 4 2 3 75 -2 163 -4 87 -9 205 -10 263 l-1 105 35 2 c19 2 68 6 109 9
l74 6 -6 179 -6 179 73 0 73 0 6 -71 c3 -39 7 -72 9 -74 3 -2 377 11 478 16
l55 3 3 -102 3 -102 -27 0 -27 0 7 -172 c4 -95 8 -173 9 -173 1 -1 35 0 76 3
l73 4 -6 127 c-4 69 -7 146 -8 171 l-2 45 104 6 c58 4 124 7 148 8 l42 1 0
105 0 105 55 0 55 0 0 78 c0 42 -4 82 -8 89 -4 6 -30 13 -57 15 l-50 3 -3 145
c-2 100 -6 147 -15 152 -7 5 -56 8 -110 6 -109 -2 -117 2 -117 60 l0 32 -257
-2 c-142 -1 -302 -4 -356 -5z"/>
<path d="M1893 2490 c-39 -3 -74 -8 -77 -11 -3 -3 -1 -52 4 -110 5 -57 9 -132
10 -167 0 -75 4 -77 96 -67 l66 7 -7 166 c-4 92 -10 172 -14 177 -3 6 -35 8
-78 5z"/>
<path d="M2255 1576 l-60 -11 -3 -83 c-2 -60 1 -84 10 -87 7 -3 40 -2 73 2
l60 8 9 83 c7 68 6 86 -5 93 -8 5 -16 8 -19 8 -3 -1 -32 -6 -65 -13z"/>
<path d="M1805 1341 l-50 -6 0 -90 0 -90 53 3 c29 1 64 7 77 12 24 9 25 13 25
95 l0 85 -27 -2 c-16 0 -50 -4 -78 -7z"/>
</g>
</svg>
